Coordinates
version=1
nRows=11
nColumns=60
inDegrees=yes

Units are S.I. units (second, meters, Newtons, ...)
If the header above contains a line with 'inDegrees', this indicates whether rotational values are in degrees (yes) or radians (no).

endheader
time	pelvis_tilt	pelvis_list	pelvis_rotation	pelvis_tx	pelvis_ty	pelvis_tz	hip_flexion_r	hip_adduction_r	hip_rotation_r	knee_angle_r_beta	knee_angle_r	ankle_angle_r	subtalar_angle_r	mtp_angle_r	hip_flexion_l	hip_adduction_l	hip_rotation_l	knee_angle_l_beta	knee_angle_l	ankle_angle_l	subtalar_angle_l	mtp_angle_l	L5_S1_Flex_Ext	L5_S1_Lat_Bending	L5_S1_axial_rotation	L4_L5_Flex_Ext	L4_L5_Lat_Bending	L4_L5_axial_rotation	L3_L4_Flex_Ext	L3_L4_Lat_Bending	L3_L4_axial_rotation	L2_L3_Flex_Ext	L2_L3_Lat_Bending	L2_L3_axial_rotation	L1_L2_Flex_Ext	L1_L2_Lat_Bending	L1_L2_axial_rotation	L1_T12_Flex_Ext	L1_T12_Lat_Bending	L1_T12_axial_rotation	Abs_r3	Abs_r2	Abs_r1	Abs_t1	Abs_t2	arm_flex_r	arm_add_r	arm_rot_r	elbow_flex_r	pro_sup_r	wrist_flex_r	wrist_dev_r	arm_flex_l	arm_add_l	arm_rot_l	elbow_flex_l	pro_sup_l	wrist_flex_l	wrist_dev_l
     56.66000000	      0.62435138	      8.31531495	     92.19174288	      0.40414706	      0.94136405	      0.28785781	      1.45645165	     -4.13757480	     -0.31598750	      0.25748171	    -14.75261513	      7.54839984	      0.00000000	      0.00000000	      1.05921945	     -6.32398212	     -1.82760097	      0.20423608	    -11.70186532	      7.74091223	      0.00000000	      0.00000000	     -6.34710258	      0.20601525	     -0.39587104	    -11.78720420	      0.27400028	     -0.42061298	    -10.42765483	      0.50090548	     -0.42061298	     -7.25410354	      0.50090548	     -0.34638716	     -5.89391946	      0.42010630	     -0.32164522	     -3.62673442	      0.31911762	     -0.29690328	    -45.33671903	      2.33048570	     -2.20171594	      0.00000000	      0.00000000	     39.69750326	    -25.76508270	      6.70791959	     86.61257562	     67.16926624	      5.27089738	     26.66792101	     42.03693487	    -26.27564877	     12.64717331	     78.94192980	     56.37611608	     10.44587969	     13.06902471
     56.67000000	      0.58707444	      8.69150989	     92.11740222	      0.40383561	      0.94167284	      0.28635997	      1.01003986	     -4.18734705	     -0.34630022	      0.25946349	    -14.86616309	      7.74787939	      0.00000000	      0.00000000	      0.54672085	     -6.27575856	     -1.98739091	      0.20510913	    -11.75188726	      7.96653732	      0.00000000	      0.00000000	     -6.34614888	      0.19645537	     -0.39835403	    -11.78543308	      0.26128564	     -0.42325115	    -10.42608799	      0.47766159	     -0.42325115	     -7.25301355	      0.47766159	     -0.34855977	     -5.89303385	      0.40061179	     -0.32366265	     -3.62618947	      0.30430937	     -0.29876552	    -45.32990680	      2.22234243	     -2.21552559	      0.00000000	      0.00000000	     37.87757649	    -25.79678247	      6.07061762	     87.85173594	     67.30829650	      5.16282137	     26.69400030	     40.01789734	    -26.15109541	     11.59610122	     80.38445609	     56.72037601	     10.25130735	     13.03748000
     56.68000000	      0.55044861	      9.05049686	     92.03340947	      0.40352367	      0.94197461	      0.28496219	      0.60078310	     -4.24623525	     -0.37718383	      0.26153862	    -14.98505899	      7.92484939	      0.00000000	      0.00000000	      0.05697340	     -6.23497034	     -2.15835691	      0.20596640	    -11.80100536	      8.16735943	      0.00000000	      0.00000000	     -6.34172228	      0.18563972	     -0.39968606	    -11.77721245	      0.24690083	     -0.42466644	    -10.41881553	      0.45136442	     -0.42466644	     -7.24795439	      0.45136442	     -0.34972531	     -5.88892331	      0.37855652	     -0.32474493	     -3.62366011	      0.28755593	     -0.29976455	    -45.29828807	      2.09999365	     -2.22293398	      0.00000000	      0.00000000	     36.13827434	    -25.83013455	      5.53410899	     88.93221255	     67.45636140	      5.06323297	     26.72904071	     38.05168387	    -26.00049846	     10.67199606	     81.70170424	     57.08235841	     10.06529177	     13.01827484
     56.69000000	      0.51305513	      9.41267767	     91.94040318	      0.40325359	      0.94229517	      0.28369616	      0.21187084	     -4.30654394	     -0.34657728	      0.26413132	    -15.13360966	      8.07665697	      0.00000000	      0.00000000	     -0.42400303	     -6.19900156	     -2.30629305	      0.20712399	    -11.86733063	      8.33124647	      0.00000000	      0.00000000	     -6.34246693	      0.17460729	     -0.40343106	    -11.77859534	      0.23222769	     -0.42864550	    -10.42003892	      0.42454015	     -0.42864550	     -7.24880546	      0.42454015	     -0.35300218	     -5.88961479	      0.35605918	     -0.32778774	     -3.62408561	      0.27046668	     -0.30257330	    -45.30360705	      1.97519253	     -2.24376254	      0.00000000	      0.00000000	     34.44492782	    -25.85509560	      5.02275961	     89.98724096	     67.62565227	      4.95969103	     26.77189789	     36.10923146	    -25.88785760	      9.74519418	     82.96848307	     57.49471390	      9.86862805	     13.00955992
     56.70000000	      0.47671972	      9.76712720	     91.83387419	      0.40297096	      0.94266986	      0.28254118	     -0.16566014	     -4.36720910	     -0.28032236	      0.26669690	    -15.28060679	      8.21916837	      0.00000000	      0.00000000	     -0.89044781	     -6.14411401	     -2.45174957	      0.20816730	    -11.92710751	      8.46474788	      0.00000000	      0.00000000	     -6.35034075	      0.16309233	     -0.40902966	    -11.79321780	      0.21691280	     -0.43459402	    -10.43297481	      0.39654269	     -0.43459402	     -7.25780444	      0.39654269	     -0.35790096	     -5.89692642	      0.33257788	     -0.33233660	     -3.62858470	      0.25263002	     -0.30677225	    -45.35984892	      1.84493306	     -2.27490028	      0.00000000	      0.00000000	     32.81630428	    -25.83792799	      4.57535828	     91.00074542	     67.84379374	      4.83647543	     26.83924573	     34.16856155	    -25.76648767	      8.83372042	     84.23426755	     58.03186069	      9.64070867	     13.03233190
     56.71000000	      0.42089046	     10.06789165	     91.72575399	      0.40274455	      0.94291871	      0.28145946	     -0.52433424	     -4.45483867	     -0.29147364	      0.26761324	    -15.33310939	      8.37774692	      0.00000000	      0.00000000	     -1.32727946	     -6.07775400	     -2.64627772	      0.20791119	    -11.91243389	      8.64562358	      0.00000000	      0.00000000	     -6.34394728	      0.14775786	     -0.40685046	    -11.78134450	      0.19651795	     -0.43227862	    -10.42247099	      0.35925846	     -0.43227862	     -7.25049735	      0.35925846	     -0.35599415	     -5.89098945	      0.30130782	     -0.33056600	     -3.62493148	      0.22887692	     -0.30513785	    -45.31418103	      1.67146644	     -2.26278022	      0.00000000	      0.00000000	     31.21610652	    -25.93984762	      4.26735811	     91.80110535	     68.01973381	      4.73541471	     26.90269351	     32.36207102	    -25.67976726	      8.14152921	     85.30028120	     58.47772424	      9.47288814	     13.06024948
     56.72000000	      0.36345324	     10.48228746	     91.65288077	      0.40242470	      0.94337271	      0.28062697	     -0.98615291	     -4.53127716	     -0.13465134	      0.26925798	    -15.42734604	      8.46478410	      0.00000000	      0.00000000	     -1.85382494	     -6.00135849	     -2.71608611	      0.20816819	    -11.92715891	      8.69032477	      0.00000000	      0.00000000	     -6.37219466	      0.13187077	     -0.46089424	    -11.83380270	      0.17538813	     -0.48970013	    -10.46887861	      0.32063060	     -0.48970013	     -7.28278128	      0.32063060	     -0.40328246	     -5.91721996	      0.26891088	     -0.37447657	     -3.64107203	      0.20426783	     -0.34567068	    -45.51594923	      1.49174857	     -2.56335550	      0.00000000	      0.00000000	     30.04849139	    -25.80021381	      4.27094330	     92.44903024	     69.11175480	      4.05216554	     27.43208688	     30.31969322	    -25.68468394	      6.91871638	     86.67736810	     61.35788398	      8.48157499	     13.90559115
     56.73000000	      0.30422760	     10.74208670	     91.53696002	      0.40224543	      0.94354951	      0.27985339	     -1.29794152	     -4.62038669	     -0.11204889	      0.26949108	    -15.44070179	      8.63820398	      0.00000000	      0.00000000	     -2.23964946	     -5.92086320	     -2.85802155	      0.20788705	    -11.91105061	      8.83909344	      0.00000000	      0.00000000	     -6.37128957	      0.11783769	     -0.44510707	    -11.83212186	      0.15672413	     -0.47292626	    -10.46739164	      0.28651057	     -0.47292626	     -7.28174685	      0.28651057	     -0.38946869	     -5.91637950	      0.24029462	     -0.36164949	     -3.64055486	      0.18253059	     -0.33383030	    -45.50948428	      1.33300356	     -2.47555198	      0.00000000	      0.00000000	     28.43880359	    -25.92773228	      3.87170171	     93.31245252	     69.15234017	      3.94096609	     27.44143194	     28.74124523	    -25.61813258	      6.46172882	     87.51169312	     61.51242320	      8.39294043	     13.98369206
     56.74000000	      0.22610484	     10.94642914	     91.48456831	      0.40197166	      0.94362287	      0.27913906	     -1.60529471	     -4.73293386	     -0.18574509	      0.26786234	    -15.34738144	      8.79157031	      0.00000000	      0.00000000	     -2.57418026	     -5.81899640	     -2.99968833	      0.20640714	    -11.82625812	      9.02452788	      0.00000000	      0.00000000	     -6.35423895	      0.10406051	     -0.43840656	    -11.80045716	      0.13840048	     -0.46580697	    -10.43937917	      0.25301272	     -0.46580697	     -7.26225970	      0.25301272	     -0.38360574	     -5.90054629	      0.21220019	     -0.35620533	     -3.63081214	      0.16118973	     -0.32880492	    -45.38769341	      1.17715329	     -2.43828577	      0.00000000	      0.00000000	     26.96076624	    -26.14112714	      3.76135936	     93.81300773	     69.18386333	      3.88832955	     27.45906513	     27.27867922	    -25.58995636	      6.23982416	     88.10258909	     61.62561666	      8.35254537	     14.02393095
     56.75000000	      0.13181082	     11.17592972	     91.45255337	      0.40168539	      0.94372709	      0.27865609	     -1.92787083	     -4.85210786	     -0.13934934	      0.26670371	    -15.28099686	      8.95273945	      0.00000000	      0.00000000	     -2.91328024	     -5.69766562	     -3.04756710	      0.20513169	    -11.75318021	      9.17604068	      0.00000000	      0.00000000	     -6.36758891	      0.09059339	     -0.44269592	    -11.82524937	      0.12048922	     -0.47036442	    -10.46131182	      0.22026878	     -0.47036442	     -7.27751737	      0.22026878	     -0.38735893	     -5.91294306	      0.18473805	     -0.35969044	     -3.63844030	      0.14032917	     -0.33202194	    -45.48305083	      1.02481060	     -2.46214191	      0.00000000	      0.00000000	     25.47187754	    -26.25115444	      3.41383467	     94.66708924	     69.23811850	      3.81006962	     27.43895614	     25.72599156	    -25.56525461	      5.77658796	     88.99601971	     61.81607017	      8.28841221	     14.06317630
     56.76000000	      0.06378047	     11.48973413	     91.45326660	      0.40139055	      0.94397581	      0.27841043	     -2.31107650	     -4.93215520	     -0.10879987	      0.26635687	    -15.26112477	      9.05274421	      0.00000000	      0.00000000	     -3.30492207	     -5.61098309	     -3.02623089	      0.20464158	    -11.72509873	      9.24035069	      0.00000000	      0.00000000	     -6.40272279	      0.07944824	     -0.45748991	    -11.89049649	      0.10566616	     -0.48608303	    -10.51903327	      0.19317046	     -0.48608303	     -7.31767188	      0.19317046	     -0.40030367	     -5.94556838	      0.16201086	     -0.37171055	     -3.65851580	      0.12306533	     -0.34311743	    -45.73400862	      0.89873443	     -2.54442164	      0.00000000	      0.00000000	     24.12727214	    -26.28842102	      3.08705379	     95.35549039	     69.38358453	      3.64212412	     27.40350714	     24.26120990	    -25.54886038	      5.31351084	     89.85925470	     62.23063956	      8.11685475	     14.23712478
